<?xml version="1.0" encoding="UTF-8" standalone="no"?><svg xmlns="http://www.w3.org/2000/svg" xmlns:xlink="http://www.w3.org/1999/xlink" contentScriptType="application/ecmascript" contentStyleType="text/css" height="180px" preserveAspectRatio="none" style="width:1272px;height:180px;background:#FFFFFF;" version="1.1" viewBox="0 0 1272 180" width="1272px" zoomAndPan="magnify"><defs/><g><text fill="#000000" font-family="sans-serif" font-size="18" lengthAdjust="spacing" textLength="170" x="544.8197" y="16.708">jawira/mini-getopt</text><ellipse cx="86.6638" cy="41.5343" fill="#FFFECC" rx="40.6638" ry="14.5812" style="stroke:#333333;stroke-width:2.0;"/><text fill="#000000" font-family="sans-serif" font-size="14" lengthAdjust="spacing" textLength="41" x="63.5122" y="45.1963">setup</text><ellipse cx="86.6107" cy="153.9753" fill="#FFFECC" rx="80.6107" ry="18.5221" style="stroke:#333333;stroke-width:2.0;"/><text fill="#000000" font-family="sans-serif" font-size="14" lengthAdjust="spacing" textLength="120" x="25.1726" y="157.2879">composer:install</text><ellipse cx="694.5061" cy="41.4768" fill="#FFFECC" rx="23.5061" ry="14.5236" style="stroke:#333333;stroke-width:2.0;"/><text fill="#000000" font-family="sans-serif" font-size="14" lengthAdjust="spacing" textLength="17" x="686.0061" y="44.3234">qa</text><ellipse cx="295.2771" cy="153.9085" fill="#FFFECC" rx="92.7771" ry="20.9554" style="stroke:#333333;stroke-width:2.0;"/><text fill="#000000" font-family="sans-serif" font-size="14" lengthAdjust="spacing" textLength="148" x="221.2771" y="156.7552">composer:normalize</text><ellipse cx="510.5998" cy="154.1731" fill="#FFFECC" rx="86.5998" ry="19.72" style="stroke:#333333;stroke-width:2.0;"/><text fill="#000000" font-family="sans-serif" font-size="14" lengthAdjust="spacing" textLength="134" x="443.5998" y="157.0198">composer:validate</text><ellipse cx="694.4096" cy="153.835" fill="#FFFECC" rx="62.4096" ry="14.8819" style="stroke:#333333;stroke-width:2.0;"/><text fill="#000000" font-family="sans-serif" font-size="14" lengthAdjust="spacing" textLength="71" x="655.9096" y="157.5826">behat:run</text><ellipse cx="872.6963" cy="153.8924" fill="#FFFECC" rx="80.1963" ry="18.4393" style="stroke:#333333;stroke-width:2.0;"/><text fill="#000000" font-family="sans-serif" font-size="14" lengthAdjust="spacing" textLength="119" x="811.6039" y="157.2511">phpstan:analyze</text><ellipse cx="1050.4096" cy="153.835" fill="#FFFECC" rx="62.4096" ry="14.8819" style="stroke:#333333;stroke-width:2.0;"/><text fill="#000000" font-family="sans-serif" font-size="14" lengthAdjust="spacing" textLength="71" x="1011.9096" y="157.5826">psalm:run</text><ellipse cx="1207.6191" cy="41.4791" fill="#FFFECC" rx="34.1191" ry="14.526" style="stroke:#333333;stroke-width:2.0;"/><text fill="#000000" font-family="sans-serif" font-size="14" lengthAdjust="spacing" textLength="32" x="1191.1725" y="44.4912">help</text><ellipse cx="1207.3197" cy="153.7202" fill="#FFFECC" rx="59.3197" ry="14.7671" style="stroke:#333333;stroke-width:2.0;"/><text fill="#000000" font-family="sans-serif" font-size="14" lengthAdjust="spacing" textLength="66" x="1171.3197" y="157.4678">visualizer</text><!--MD5=[c4e3d432c5d44af54c7eae14d718607a]
link setup to composer:install--><path d="M86.5,56.0021 C86.5,74.4631 86.5,107.7717 86.5,130.1245 " fill="none" id="setup-to-composer:install" style="stroke:#1A85FF;stroke-width:2.0;"/><polygon fill="#1A85FF" points="86.5,135.276,90.5,126.276,86.5,130.276,82.5,126.276,86.5,135.276" style="stroke:#1A85FF;stroke-width:2.0;"/><text fill="#000000" font-family="sans-serif" font-size="13" lengthAdjust="spacing" textLength="61" x="87.5" y="99.02">depend:1</text><!--MD5=[bd109b3677e86d799c713ba6a41cbebf]
link qa to composer:normalize--><path d="M673.231,47.7501 C641.296,55.7521 579.088,71.5211 526.5,85.9531 C467.833,102.0528 401.124,121.5278 354.529,135.3218 " fill="none" id="qa-to-composer:normalize" style="stroke:#1A85FF;stroke-width:2.0;"/><polygon fill="#1A85FF" points="349.517,136.8066,359.2824,138.0859,354.3111,135.3866,357.0104,130.4153,349.517,136.8066" style="stroke:#1A85FF;stroke-width:2.0;"/><text fill="#000000" font-family="sans-serif" font-size="13" lengthAdjust="spacing" textLength="61" x="527.5" y="99.02">depend:1</text><!--MD5=[2b3f4df63b0ee79c9fb6dbf297809d2e]
link qa to composer:validate--><path d="M678.171,52.2591 C648.252,70.2271 584.075,108.768 544.369,132.6132 " fill="none" id="qa-to-composer:validate" style="stroke:#1A85FF;stroke-width:2.0;"/><polygon fill="#1A85FF" points="539.652,135.446,549.4269,134.2415,543.9384,132.8718,545.3081,127.3832,539.652,135.446" style="stroke:#1A85FF;stroke-width:2.0;"/><text fill="#000000" font-family="sans-serif" font-size="13" lengthAdjust="spacing" textLength="61" x="620.5" y="99.02">depend:2</text><!--MD5=[ebf99d0517b067f47ea96a2fb5f1832b]
link qa to behat:run--><path d="M694.5,56.0021 C694.5,75.5298 694.5,111.6721 694.5,133.8859 " fill="none" id="qa-to-behat:run" style="stroke:#1A85FF;stroke-width:2.0;"/><polygon fill="#1A85FF" points="694.5,138.9442,698.5,129.9442,694.5,133.9442,690.5,129.9442,694.5,138.9442" style="stroke:#1A85FF;stroke-width:2.0;"/><text fill="#000000" font-family="sans-serif" font-size="13" lengthAdjust="spacing" textLength="61" x="695.5" y="99.02">depend:3</text><!--MD5=[813d92c9fb1ef4075574608099832508]
link qa to phpstan:analyze--><path d="M710.6,52.2561 C725.009,61.0431 746.697,74.3071 765.5,85.9531 C791.245,101.8998 820.37,120.1505 841.726,133.5727 " fill="none" id="qa-to-phpstan:analyze" style="stroke:#1A85FF;stroke-width:2.0;"/><polygon fill="#1A85FF" points="846.161,136.3609,840.6709,128.1842,841.9281,133.6996,836.4127,134.9568,846.161,136.3609" style="stroke:#1A85FF;stroke-width:2.0;"/><text fill="#000000" font-family="sans-serif" font-size="13" lengthAdjust="spacing" textLength="61" x="793.5" y="99.02">depend:4</text><!--MD5=[5d3e6fc319b2ee7a18ccbd3a812f0e8b]
link qa to psalm:run--><path d="M716.019,47.3211 C748.303,54.7741 811.08,69.8531 863.5,85.9531 C916.662,102.2805 977.05,124.6236 1014.47,138.9248 " fill="none" id="qa-to-psalm:run" style="stroke:#1A85FF;stroke-width:2.0;"/><polygon fill="#1A85FF" points="1019.36,140.8012,1012.3827,133.8502,1014.6899,139.0151,1009.5249,141.3224,1019.36,140.8012" style="stroke:#1A85FF;stroke-width:2.0;"/><text fill="#000000" font-family="sans-serif" font-size="13" lengthAdjust="spacing" textLength="61" x="916.5" y="99.02">depend:5</text><!--MD5=[9f3237f55493a0d177cfac72db78ff2c]
link help to visualizer--><path d="M1207.5,56.0021 C1207.5,75.5298 1207.5,111.6721 1207.5,133.8859 " fill="none" id="help-to-visualizer" style="stroke:#D41159;stroke-width:2.0;"/><polygon fill="#D41159" points="1207.5,138.9442,1211.5,129.9442,1207.5,133.9442,1203.5,129.9442,1207.5,138.9442" style="stroke:#D41159;stroke-width:2.0;"/><text fill="#000000" font-family="sans-serif" font-size="13" lengthAdjust="spacing" textLength="34" x="1208.5" y="99.02">call:1</text><!--MD5=[238effd9009cd522dea608325244243a]
@startuml
title
jawira/mini-getopt
end title

top to bottom direction

skinparam Shadowing false
skinparam ArrowFontColor Black
skinparam ArrowThickness 2
skinparam UseCaseBackgroundColor #FFFECC
skinparam UseCaseBorderColor #333333
skinparam UseCaseBorderThickness 2
skinparam UseCaseFontColor Black


(setup) -[#1A85FF]-> (composer:install) : depend:1
(qa) -[#1A85FF]-> (composer:normalize) : depend:1
(qa) -[#1A85FF]-> (composer:validate) : depend:2
(qa) -[#1A85FF]-> (behat:run) : depend:3
(qa) -[#1A85FF]-> (phpstan:analyze) : depend:4
(qa) -[#1A85FF]-> (psalm:run) : depend:5
(help) -[#D41159]-> (visualizer) : call:1
(setup)
(qa)
(composer:install)
(composer:validate)
(composer:normalize)
(behat:run)
(phpstan:analyze)
(psalm:run)
(help)
(visualizer)
@enduml

PlantUML version 1.2021.13beta4(Unknown compile time)
(GPL source distribution)
Java Runtime: Java(TM) SE Runtime Environment
JVM: Java HotSpot(TM) 64-Bit Server VM
Default Encoding: UTF-8
Language: en
Country: US
--></g></svg>