<?xml version="1.0" encoding="UTF-8" standalone="no"?><svg xmlns="http://www.w3.org/2000/svg" xmlns:xlink="http://www.w3.org/1999/xlink" contentScriptType="application/ecmascript" contentStyleType="text/css" height="188px" preserveAspectRatio="none" style="width:1814px;height:188px;background:#FFFFFF;" version="1.1" viewBox="0 0 1814 188" width="1814px" zoomAndPan="magnify"><defs/><g><text fill="#000000" font-family="sans-serif" font-size="18" lengthAdjust="spacing" textLength="170" x="815.5339" y="16.708">jawira/mini-getopt</text><ellipse cx="86.6638" cy="45.5343" fill="#FFFECC" rx="40.6638" ry="14.5812" style="stroke:#333333;stroke-width:2.0;"/><text fill="#000000" font-family="sans-serif" font-size="14" lengthAdjust="spacing" textLength="41" x="63.5122" y="49.1963">setup</text><ellipse cx="86.6107" cy="161.9753" fill="#FFFECC" rx="80.6107" ry="18.5221" style="stroke:#333333;stroke-width:2.0;"/><text fill="#000000" font-family="sans-serif" font-size="14" lengthAdjust="spacing" textLength="120" x="25.1726" y="165.2879">composer:install</text><ellipse cx="901.5061" cy="45.4768" fill="#FFFECC" rx="23.5061" ry="14.5236" style="stroke:#333333;stroke-width:2.0;"/><text fill="#000000" font-family="sans-serif" font-size="14" lengthAdjust="spacing" textLength="17" x="893.0061" y="48.3234">qa</text><ellipse cx="295.2771" cy="161.9085" fill="#FFFECC" rx="92.7771" ry="20.9554" style="stroke:#333333;stroke-width:2.0;"/><text fill="#000000" font-family="sans-serif" font-size="14" lengthAdjust="spacing" textLength="148" x="221.2771" y="164.7552">composer:normalize</text><ellipse cx="510.5998" cy="162.1731" fill="#FFFECC" rx="86.5998" ry="19.72" style="stroke:#333333;stroke-width:2.0;"/><text fill="#000000" font-family="sans-serif" font-size="14" lengthAdjust="spacing" textLength="134" x="443.5998" y="165.0198">composer:validate</text><ellipse cx="715.5656" cy="162.0662" fill="#FFFECC" rx="83.5656" ry="19.1131" style="stroke:#333333;stroke-width:2.0;"/><text fill="#000000" font-family="sans-serif" font-size="14" lengthAdjust="spacing" textLength="127" x="651.6623" y="165.0505">composer:unused</text><ellipse cx="901.6678" cy="161.7867" fill="#FFFECC" rx="67.1678" ry="15.8336" style="stroke:#333333;stroke-width:2.0;"/><text fill="#000000" font-family="sans-serif" font-size="14" lengthAdjust="spacing" textLength="85" x="856.1678" y="165.5342">phpunit:run</text><ellipse cx="1066.4096" cy="161.835" fill="#FFFECC" rx="62.4096" ry="14.8819" style="stroke:#333333;stroke-width:2.0;"/><text fill="#000000" font-family="sans-serif" font-size="14" lengthAdjust="spacing" textLength="71" x="1027.9096" y="165.5826">behat:run</text><ellipse cx="1244.6963" cy="161.8924" fill="#FFFECC" rx="80.1963" ry="18.4393" style="stroke:#333333;stroke-width:2.0;"/><text fill="#000000" font-family="sans-serif" font-size="14" lengthAdjust="spacing" textLength="119" x="1183.6039" y="165.2511">phpstan:analyze</text><ellipse cx="1422.4096" cy="161.835" fill="#FFFECC" rx="62.4096" ry="14.8819" style="stroke:#333333;stroke-width:2.0;"/><text fill="#000000" font-family="sans-serif" font-size="14" lengthAdjust="spacing" textLength="71" x="1383.9096" y="165.5826">psalm:run</text><ellipse cx="1579.6191" cy="45.4791" fill="#FFFECC" rx="34.1191" ry="14.526" style="stroke:#333333;stroke-width:2.0;"/><text fill="#000000" font-family="sans-serif" font-size="14" lengthAdjust="spacing" textLength="32" x="1563.1725" y="48.4912">help</text><ellipse cx="1579.3197" cy="161.7202" fill="#FFFECC" rx="59.3197" ry="14.7671" style="stroke:#333333;stroke-width:2.0;"/><text fill="#000000" font-family="sans-serif" font-size="14" lengthAdjust="spacing" textLength="66" x="1543.3197" y="165.4678">visualizer</text><ellipse cx="1728.2839" cy="45.3099" fill="#FFFECC" rx="79.7839" ry="18.3568" style="stroke:#333333;stroke-width:2.0;"/><text fill="#000000" font-family="sans-serif" font-size="14" lengthAdjust="spacing" textLength="118" x="1667.5356" y="48.7144">phpunit:testdox</text><!--MD5=[c4e3d432c5d44af54c7eae14d718607a]
link setup to composer:install--><path d="M86.5,60.0371 C86.5,79.3131 86.5,114.8476 86.5,138.1899 " fill="none" id="setup-to-composer:install" style="stroke:#1A85FF;stroke-width:2.0;"/><polygon fill="#1A85FF" points="86.5,143.2645,90.5,134.2645,86.5,138.2645,82.5,134.2645,86.5,143.2645" style="stroke:#1A85FF;stroke-width:2.0;"/><text fill="#000000" font-family="sans-serif" font-size="13" lengthAdjust="spacing" textLength="61" x="87.5" y="107.02">depend:1</text><!--MD5=[bd109b3677e86d799c713ba6a41cbebf]
link qa to composer:normalize--><path d="M878.919,49.5891 C828.947,56.6271 705.288,74.5891 602.5,93.9531 C519.591,109.5725 424.815,130.7718 362.767,145.109 " fill="none" id="qa-to-composer:normalize" style="stroke:#1A85FF;stroke-width:2.0;"/><polygon fill="#1A85FF" points="357.613,146.3016,367.2831,148.1698,362.4843,145.1745,365.4796,140.3757,357.613,146.3016" style="stroke:#1A85FF;stroke-width:2.0;"/><text fill="#000000" font-family="sans-serif" font-size="13" lengthAdjust="spacing" textLength="61" x="603.5" y="107.02">depend:1</text><!--MD5=[2b3f4df63b0ee79c9fb6dbf297809d2e]
link qa to composer:validate--><path d="M880.421,51.9141 C847.475,60.5091 781.82,77.8711 726.5,93.9531 C670.594,110.2054 606.982,130.1094 563.349,143.9818 " fill="none" id="qa-to-composer:validate" style="stroke:#1A85FF;stroke-width:2.0;"/><polygon fill="#1A85FF" points="558.394,145.5583,568.1834,146.6391,563.1583,144.0413,565.7561,139.0162,558.394,145.5583" style="stroke:#1A85FF;stroke-width:2.0;"/><text fill="#000000" font-family="sans-serif" font-size="13" lengthAdjust="spacing" textLength="61" x="727.5" y="107.02">depend:2</text><!--MD5=[29ca9aebf0992a36414e8d2a9933f959]
link qa to composer:unused--><path d="M885.642,56.2151 C855.127,75.0001 787.71,116.5013 747.504,141.2517 " fill="none" id="qa-to-composer:unused" style="stroke:#1A85FF;stroke-width:2.0;"/><polygon fill="#1A85FF" points="743.22,143.8886,752.981,142.5764,747.4778,141.2673,748.7869,135.764,743.22,143.8886" style="stroke:#1A85FF;stroke-width:2.0;"/><text fill="#000000" font-family="sans-serif" font-size="13" lengthAdjust="spacing" textLength="61" x="821.5" y="107.02">depend:3</text><!--MD5=[f650ecf875d4995533402a90e716630b]
link qa to phpunit:run--><path d="M901.5,60.0371 C901.5,80.0841 901.5,117.7164 901.5,140.9306 " fill="none" id="qa-to-phpunit:run" style="stroke:#1A85FF;stroke-width:2.0;"/><polygon fill="#1A85FF" points="901.5,145.9364,905.5,136.9364,901.5,140.9364,897.5,136.9364,901.5,145.9364" style="stroke:#1A85FF;stroke-width:2.0;"/><text fill="#000000" font-family="sans-serif" font-size="13" lengthAdjust="spacing" textLength="61" x="902.5" y="107.02">depend:4</text><!--MD5=[ebf99d0517b067f47ea96a2fb5f1832b]
link qa to behat:run--><path d="M916.823,56.5161 C931.263,66.0431 953.463,80.8051 972.5,93.9531 C997.029,110.8943 1024.79,130.7688 1043.74,144.448 " fill="none" id="qa-to-behat:run" style="stroke:#1A85FF;stroke-width:2.0;"/><polygon fill="#1A85FF" points="1047.89,147.4415,1042.9375,138.9284,1043.8372,144.5133,1038.2523,145.413,1047.89,147.4415" style="stroke:#1A85FF;stroke-width:2.0;"/><text fill="#000000" font-family="sans-serif" font-size="13" lengthAdjust="spacing" textLength="61" x="997.5" y="107.02">depend:5</text><!--MD5=[813d92c9fb1ef4075574608099832508]
link qa to phpstan:analyze--><path d="M922.635,51.8971 C954.343,60.1991 1016,76.8711 1067.5,93.9531 C1113.91,109.3476 1166.18,129.4854 1201.81,143.6494 " fill="none" id="qa-to-phpstan:analyze" style="stroke:#1A85FF;stroke-width:2.0;"/><polygon fill="#1A85FF" points="1206.5,145.5201,1199.6281,138.4648,1201.8573,143.6639,1196.6582,145.8931,1206.5,145.5201" style="stroke:#1A85FF;stroke-width:2.0;"/><text fill="#000000" font-family="sans-serif" font-size="13" lengthAdjust="spacing" textLength="61" x="1113.5" y="107.02">depend:6</text><!--MD5=[5d3e6fc319b2ee7a18ccbd3a812f0e8b]
link qa to psalm:run--><path d="M924.323,49.4561 C972.511,55.9821 1088.05,72.6001 1183.5,93.9531 C1253.69,109.657 1333.96,133.3663 1381.32,147.9653 " fill="none" id="qa-to-psalm:run" style="stroke:#1A85FF;stroke-width:2.0;"/><polygon fill="#1A85FF" points="1386.36,149.524,1378.9362,143.052,1381.5815,148.0522,1376.5813,150.6975,1386.36,149.524" style="stroke:#1A85FF;stroke-width:2.0;"/><text fill="#000000" font-family="sans-serif" font-size="13" lengthAdjust="spacing" textLength="61" x="1251.5" y="107.02">depend:7</text><!--MD5=[9f3237f55493a0d177cfac72db78ff2c]
link help to visualizer--><path d="M1579.5,60.0371 C1579.5,80.2191 1579.5,118.2246 1579.5,141.3981 " fill="none" id="help-to-visualizer" style="stroke:#D41159;stroke-width:2.0;"/><polygon fill="#D41159" points="1579.5,146.6687,1583.5,137.6687,1579.5,141.6687,1575.5,137.6687,1579.5,146.6687" style="stroke:#D41159;stroke-width:2.0;"/><text fill="#000000" font-family="sans-serif" font-size="13" lengthAdjust="spacing" textLength="34" x="1580.5" y="107.02">call:1</text><!--MD5=[f66bd0840b5da6346caa329cb2fd042f]
@startuml
title
jawira/mini-getopt
end title

top to bottom direction

skinparam Shadowing false
skinparam ArrowFontColor Black
skinparam ArrowThickness 2
skinparam UseCaseBackgroundColor #FFFECC
skinparam UseCaseBorderColor #333333
skinparam UseCaseBorderThickness 2
skinparam UseCaseFontColor Black


(setup) -[#1A85FF]-> (composer:install) : depend:1
(qa) -[#1A85FF]-> (composer:normalize) : depend:1
(qa) -[#1A85FF]-> (composer:validate) : depend:2
(qa) -[#1A85FF]-> (composer:unused) : depend:3
(qa) -[#1A85FF]-> (phpunit:run) : depend:4
(qa) -[#1A85FF]-> (behat:run) : depend:5
(qa) -[#1A85FF]-> (phpstan:analyze) : depend:6
(qa) -[#1A85FF]-> (psalm:run) : depend:7
(help) -[#D41159]-> (visualizer) : call:1
(setup)
(qa)
(composer:install)
(composer:validate)
(composer:normalize)
(composer:unused)
(behat:run)
(phpstan:analyze)
(psalm:run)
(help)
(visualizer)
(phpunit:run)
(phpunit:testdox)
@enduml

PlantUML version 1.2021.13beta8(Unknown compile time)
(GPL source distribution)
Java Runtime: Java(TM) SE Runtime Environment
JVM: Java HotSpot(TM) 64-Bit Server VM
Default Encoding: UTF-8
Language: en
Country: US
--></g></svg>