<?xml version="1.0" encoding="UTF-8" standalone="no"?><svg xmlns="http://www.w3.org/2000/svg" xmlns:xlink="http://www.w3.org/1999/xlink" contentScriptType="application/ecmascript" contentStyleType="text/css" height="180px" preserveAspectRatio="none" style="width:1112px;height:180px;background:#FFFFFF;" version="1.1" viewBox="0 0 1112 180" width="1112px" zoomAndPan="magnify"><defs/><g><text fill="#000000" font-family="sans-serif" font-size="18" lengthAdjust="spacing" textLength="170" x="464.8197" y="16.708">jawira/mini-getopt</text><ellipse cx="86.6638" cy="41.5343" fill="#FFFECC" rx="40.6638" ry="14.5812" style="stroke:#333333;stroke-width:2.0;"/><text fill="#000000" font-family="sans-serif" font-size="14" lengthAdjust="spacing" textLength="41" x="63.5122" y="45.1963">setup</text><ellipse cx="86.6107" cy="153.9753" fill="#FFFECC" rx="80.6107" ry="18.5221" style="stroke:#333333;stroke-width:2.0;"/><text fill="#000000" font-family="sans-serif" font-size="14" lengthAdjust="spacing" textLength="120" x="25.1726" y="157.2879">composer:install</text><ellipse cx="602.5061" cy="41.4768" fill="#FFFECC" rx="23.5061" ry="14.5236" style="stroke:#333333;stroke-width:2.0;"/><text fill="#000000" font-family="sans-serif" font-size="14" lengthAdjust="spacing" textLength="17" x="594.0061" y="44.3234">qa</text><ellipse cx="295.2771" cy="153.9085" fill="#FFFECC" rx="92.7771" ry="20.9554" style="stroke:#333333;stroke-width:2.0;"/><text fill="#000000" font-family="sans-serif" font-size="14" lengthAdjust="spacing" textLength="148" x="221.2771" y="156.7552">composer:normalize</text><ellipse cx="510.5998" cy="154.1731" fill="#FFFECC" rx="86.5998" ry="19.72" style="stroke:#333333;stroke-width:2.0;"/><text fill="#000000" font-family="sans-serif" font-size="14" lengthAdjust="spacing" textLength="134" x="443.5998" y="157.0198">composer:validate</text><ellipse cx="694.4096" cy="153.835" fill="#FFFECC" rx="62.4096" ry="14.8819" style="stroke:#333333;stroke-width:2.0;"/><text fill="#000000" font-family="sans-serif" font-size="14" lengthAdjust="spacing" textLength="71" x="655.9096" y="157.5826">behat:run</text><ellipse cx="872.6963" cy="153.8924" fill="#FFFECC" rx="80.1963" ry="18.4393" style="stroke:#333333;stroke-width:2.0;"/><text fill="#000000" font-family="sans-serif" font-size="14" lengthAdjust="spacing" textLength="119" x="811.6039" y="157.2511">phpstan:analyze</text><ellipse cx="1047.6191" cy="41.4791" fill="#FFFECC" rx="34.1191" ry="14.526" style="stroke:#333333;stroke-width:2.0;"/><text fill="#000000" font-family="sans-serif" font-size="14" lengthAdjust="spacing" textLength="32" x="1031.1725" y="44.4912">help</text><ellipse cx="1047.3197" cy="153.7202" fill="#FFFECC" rx="59.3197" ry="14.7671" style="stroke:#333333;stroke-width:2.0;"/><text fill="#000000" font-family="sans-serif" font-size="14" lengthAdjust="spacing" textLength="66" x="1011.3197" y="157.4678">visualizer</text><!--MD5=[c4e3d432c5d44af54c7eae14d718607a]
link setup to composer:install--><path d="M86.5,56.0021 C86.5,74.4631 86.5,107.7717 86.5,130.1245 " fill="none" id="setup-to-composer:install" style="stroke:#1A85FF;stroke-width:2.0;"/><polygon fill="#1A85FF" points="86.5,135.276,90.5,126.276,86.5,130.276,82.5,126.276,86.5,135.276" style="stroke:#1A85FF;stroke-width:2.0;"/><text fill="#000000" font-family="sans-serif" font-size="13" lengthAdjust="spacing" textLength="61" x="87.5" y="99.02">depend:1</text><!--MD5=[bd109b3677e86d799c713ba6a41cbebf]
link qa to composer:normalize--><path d="M582.829,49.5331 C536.109,66.3491 417.215,109.1437 347.887,134.0972 " fill="none" id="qa-to-composer:normalize" style="stroke:#1A85FF;stroke-width:2.0;"/><polygon fill="#1A85FF" points="342.983,135.8624,352.8058,136.579,347.6877,134.1695,350.0971,129.0515,342.983,135.8624" style="stroke:#1A85FF;stroke-width:2.0;"/><text fill="#000000" font-family="sans-serif" font-size="13" lengthAdjust="spacing" textLength="61" x="477.5" y="99.02">depend:1</text><!--MD5=[2b3f4df63b0ee79c9fb6dbf297809d2e]
link qa to composer:validate--><path d="M592.303,54.7011 C577.089,72.9731 548.202,107.6693 529.148,130.5554 " fill="none" id="qa-to-composer:validate" style="stroke:#1A85FF;stroke-width:2.0;"/><polygon fill="#1A85FF" points="525.944,134.4034,534.7765,130.046,529.1431,130.5608,528.6283,124.9274,525.944,134.4034" style="stroke:#1A85FF;stroke-width:2.0;"/><text fill="#000000" font-family="sans-serif" font-size="13" lengthAdjust="spacing" textLength="61" x="566.5" y="99.02">depend:2</text><!--MD5=[ebf99d0517b067f47ea96a2fb5f1832b]
link qa to behat:run--><path d="M612.697,54.7011 C628.905,74.1671 660.631,112.274 679.455,134.8829 " fill="none" id="qa-to-behat:run" style="stroke:#1A85FF;stroke-width:2.0;"/><polygon fill="#1A85FF" points="682.813,138.9162,680.1289,129.4402,679.614,135.0735,673.9806,134.5586,682.813,138.9162" style="stroke:#1A85FF;stroke-width:2.0;"/><text fill="#000000" font-family="sans-serif" font-size="13" lengthAdjust="spacing" textLength="61" x="652.5" y="99.02">depend:3</text><!--MD5=[813d92c9fb1ef4075574608099832508]
link qa to phpstan:analyze--><path d="M622.627,49.2501 C646.602,57.4611 687.776,71.9261 722.5,85.9531 C760.906,101.4681 804.012,120.9426 834.124,134.8908 " fill="none" id="qa-to-phpstan:analyze" style="stroke:#1A85FF;stroke-width:2.0;"/><polygon fill="#1A85FF" points="838.843,137.0806,832.3624,129.6643,834.3074,134.9763,828.9954,136.9212,838.843,137.0806" style="stroke:#1A85FF;stroke-width:2.0;"/><text fill="#000000" font-family="sans-serif" font-size="13" lengthAdjust="spacing" textLength="61" x="761.5" y="99.02">depend:4</text><!--MD5=[9f3237f55493a0d177cfac72db78ff2c]
link help to visualizer--><path d="M1047.5,56.0021 C1047.5,75.5298 1047.5,111.6721 1047.5,133.8859 " fill="none" id="help-to-visualizer" style="stroke:#D41159;stroke-width:2.0;"/><polygon fill="#D41159" points="1047.5,138.9442,1051.5,129.9442,1047.5,133.9442,1043.5,129.9442,1047.5,138.9442" style="stroke:#D41159;stroke-width:2.0;"/><text fill="#000000" font-family="sans-serif" font-size="13" lengthAdjust="spacing" textLength="34" x="1048.5" y="99.02">call:1</text><!--MD5=[1f228a688b59a1f4e363f6c091b434ae]
@startuml
title
jawira/mini-getopt
end title

top to bottom direction

skinparam Shadowing false
skinparam ArrowFontColor Black
skinparam ArrowThickness 2
skinparam UseCaseBackgroundColor #FFFECC
skinparam UseCaseBorderColor #333333
skinparam UseCaseBorderThickness 2
skinparam UseCaseFontColor Black


(setup) -[#1A85FF]-> (composer:install) : depend:1
(qa) -[#1A85FF]-> (composer:normalize) : depend:1
(qa) -[#1A85FF]-> (composer:validate) : depend:2
(qa) -[#1A85FF]-> (behat:run) : depend:3
(qa) -[#1A85FF]-> (phpstan:analyze) : depend:4
(help) -[#D41159]-> (visualizer) : call:1
(setup)
(qa)
(composer:install)
(composer:validate)
(composer:normalize)
(behat:run)
(phpstan:analyze)
(help)
(visualizer)
@enduml

PlantUML version 1.2021.11beta7(Unknown compile time)
(GPL source distribution)
Java Runtime: Java(TM) SE Runtime Environment
JVM: Java HotSpot(TM) 64-Bit Server VM
Default Encoding: UTF-8
Language: en
Country: US
--></g></svg>