<?xml version="1.0" encoding="UTF-8" standalone="no"?><svg xmlns="http://www.w3.org/2000/svg" xmlns:xlink="http://www.w3.org/1999/xlink" contentScriptType="application/ecmascript" contentStyleType="text/css" height="188px" preserveAspectRatio="none" style="width:1612px;height:188px;background:#FFFFFF;" version="1.1" viewBox="0 0 1612 188" width="1612px" zoomAndPan="magnify"><defs/><g><text fill="#000000" font-family="sans-serif" font-size="18" lengthAdjust="spacing" textLength="170" x="714.5339" y="16.708">jawira/mini-getopt</text><ellipse cx="86.6638" cy="45.5343" fill="#FFFECC" rx="40.6638" ry="14.5812" style="stroke:#333333;stroke-width:2.0;"/><text fill="#000000" font-family="sans-serif" font-size="14" lengthAdjust="spacing" textLength="41" x="63.5122" y="49.1963">setup</text><ellipse cx="86.6107" cy="161.9753" fill="#FFFECC" rx="80.6107" ry="18.5221" style="stroke:#333333;stroke-width:2.0;"/><text fill="#000000" font-family="sans-serif" font-size="14" lengthAdjust="spacing" textLength="120" x="25.1726" y="165.2879">composer:install</text><ellipse cx="781.5061" cy="45.4768" fill="#FFFECC" rx="23.5061" ry="14.5236" style="stroke:#333333;stroke-width:2.0;"/><text fill="#000000" font-family="sans-serif" font-size="14" lengthAdjust="spacing" textLength="17" x="773.0061" y="48.3234">qa</text><ellipse cx="295.2771" cy="161.9085" fill="#FFFECC" rx="92.7771" ry="20.9554" style="stroke:#333333;stroke-width:2.0;"/><text fill="#000000" font-family="sans-serif" font-size="14" lengthAdjust="spacing" textLength="148" x="221.2771" y="164.7552">composer:normalize</text><ellipse cx="510.5998" cy="162.1731" fill="#FFFECC" rx="86.5998" ry="19.72" style="stroke:#333333;stroke-width:2.0;"/><text fill="#000000" font-family="sans-serif" font-size="14" lengthAdjust="spacing" textLength="134" x="443.5998" y="165.0198">composer:validate</text><ellipse cx="699.6678" cy="161.7867" fill="#FFFECC" rx="67.1678" ry="15.8336" style="stroke:#333333;stroke-width:2.0;"/><text fill="#000000" font-family="sans-serif" font-size="14" lengthAdjust="spacing" textLength="85" x="654.1678" y="165.5342">phpunit:run</text><ellipse cx="864.4096" cy="161.835" fill="#FFFECC" rx="62.4096" ry="14.8819" style="stroke:#333333;stroke-width:2.0;"/><text fill="#000000" font-family="sans-serif" font-size="14" lengthAdjust="spacing" textLength="71" x="825.9096" y="165.5826">behat:run</text><ellipse cx="1042.6963" cy="161.8924" fill="#FFFECC" rx="80.1963" ry="18.4393" style="stroke:#333333;stroke-width:2.0;"/><text fill="#000000" font-family="sans-serif" font-size="14" lengthAdjust="spacing" textLength="119" x="981.6039" y="165.2511">phpstan:analyze</text><ellipse cx="1220.4096" cy="161.835" fill="#FFFECC" rx="62.4096" ry="14.8819" style="stroke:#333333;stroke-width:2.0;"/><text fill="#000000" font-family="sans-serif" font-size="14" lengthAdjust="spacing" textLength="71" x="1181.9096" y="165.5826">psalm:run</text><ellipse cx="1377.6191" cy="45.4791" fill="#FFFECC" rx="34.1191" ry="14.526" style="stroke:#333333;stroke-width:2.0;"/><text fill="#000000" font-family="sans-serif" font-size="14" lengthAdjust="spacing" textLength="32" x="1361.1725" y="48.4912">help</text><ellipse cx="1377.3197" cy="161.7202" fill="#FFFECC" rx="59.3197" ry="14.7671" style="stroke:#333333;stroke-width:2.0;"/><text fill="#000000" font-family="sans-serif" font-size="14" lengthAdjust="spacing" textLength="66" x="1341.3197" y="165.4678">visualizer</text><ellipse cx="1526.2839" cy="45.3099" fill="#FFFECC" rx="79.7839" ry="18.3568" style="stroke:#333333;stroke-width:2.0;"/><text fill="#000000" font-family="sans-serif" font-size="14" lengthAdjust="spacing" textLength="118" x="1465.5356" y="48.7144">phpunit:testdox</text><!--MD5=[c4e3d432c5d44af54c7eae14d718607a]
link setup to composer:install--><path d="M86.5,60.0371 C86.5,79.3131 86.5,114.8476 86.5,138.1899 " fill="none" id="setup-to-composer:install" style="stroke:#1A85FF;stroke-width:2.0;"/><polygon fill="#1A85FF" points="86.5,143.2645,90.5,134.2645,86.5,138.2645,82.5,134.2645,86.5,143.2645" style="stroke:#1A85FF;stroke-width:2.0;"/><text fill="#000000" font-family="sans-serif" font-size="13" lengthAdjust="spacing" textLength="61" x="87.5" y="107.02">depend:1</text><!--MD5=[bd109b3677e86d799c713ba6a41cbebf]
link qa to composer:normalize--><path d="M759.393,50.7901 C718.989,58.7901 630.557,76.6391 556.5,93.9531 C488.43,109.8674 410.899,130.0311 358.145,144.0611 " fill="none" id="qa-to-composer:normalize" style="stroke:#1A85FF;stroke-width:2.0;"/><polygon fill="#1A85FF" points="353.118,145.3993,362.8444,146.9478,357.9495,144.1122,360.785,139.2174,353.118,145.3993" style="stroke:#1A85FF;stroke-width:2.0;"/><text fill="#000000" font-family="sans-serif" font-size="13" lengthAdjust="spacing" textLength="61" x="557.5" y="107.02">depend:1</text><!--MD5=[2b3f4df63b0ee79c9fb6dbf297809d2e]
link qa to composer:validate--><path d="M762.567,54.0751 C739.564,63.3651 699.599,79.6031 665.5,93.9531 C627.411,109.9817 584.274,128.6722 553.196,142.2336 " fill="none" id="qa-to-composer:validate" style="stroke:#1A85FF;stroke-width:2.0;"/><polygon fill="#1A85FF" points="548.314,144.3649,558.1627,144.4282,552.896,142.3636,554.9606,137.097,548.314,144.3649" style="stroke:#1A85FF;stroke-width:2.0;"/><text fill="#000000" font-family="sans-serif" font-size="13" lengthAdjust="spacing" textLength="61" x="666.5" y="107.02">depend:2</text><!--MD5=[f650ecf875d4995533402a90e716630b]
link qa to phpunit:run--><path d="M772.411,59.1441 C758.044,79.2061 729.994,118.3728 713.184,141.8454 " fill="none" id="qa-to-phpunit:run" style="stroke:#1A85FF;stroke-width:2.0;"/><polygon fill="#1A85FF" points="710.182,146.0375,718.6739,141.0488,713.093,141.9723,712.1695,136.3913,710.182,146.0375" style="stroke:#1A85FF;stroke-width:2.0;"/><text fill="#000000" font-family="sans-serif" font-size="13" lengthAdjust="spacing" textLength="61" x="746.5" y="107.02">depend:3</text><!--MD5=[ebf99d0517b067f47ea96a2fb5f1832b]
link qa to behat:run--><path d="M790.757,58.9211 C797.839,68.4821 807.83,82.0201 816.5,93.9531 C828.44,110.3856 841.897,129.1951 851.518,142.693 " fill="none" id="qa-to-behat:run" style="stroke:#1A85FF;stroke-width:2.0;"/><polygon fill="#1A85FF" points="854.625,147.0558,852.6616,137.4046,851.7242,142.9833,846.1456,142.0459,854.625,147.0558" style="stroke:#1A85FF;stroke-width:2.0;"/><text fill="#000000" font-family="sans-serif" font-size="13" lengthAdjust="spacing" textLength="61" x="829.5" y="107.02">depend:4</text><!--MD5=[813d92c9fb1ef4075574608099832508]
link qa to phpstan:analyze--><path d="M800.848,53.8621 C824.336,62.9421 865.076,78.9741 899.5,93.9531 C935.622,109.6712 976.245,128.8521 1004.937,142.6569 " fill="none" id="qa-to-phpstan:analyze" style="stroke:#1A85FF;stroke-width:2.0;"/><polygon fill="#1A85FF" points="1009.79,144.9971,1003.4218,137.484,1005.2866,142.8247,999.9459,144.6895,1009.79,144.9971" style="stroke:#1A85FF;stroke-width:2.0;"/><text fill="#000000" font-family="sans-serif" font-size="13" lengthAdjust="spacing" textLength="61" x="936.5" y="107.02">depend:5</text><!--MD5=[5d3e6fc319b2ee7a18ccbd3a812f0e8b]
link qa to psalm:run--><path d="M803.7,50.4121 C844.255,57.8051 932.919,74.7141 1006.5,93.9531 C1068.52,110.1682 1139.29,133.2414 1181.89,147.6429 " fill="none" id="qa-to-psalm:run" style="stroke:#1A85FF;stroke-width:2.0;"/><polygon fill="#1A85FF" points="1186.69,149.2685,1179.4619,142.5786,1181.9574,147.6553,1176.8807,150.1508,1186.69,149.2685" style="stroke:#1A85FF;stroke-width:2.0;"/><text fill="#000000" font-family="sans-serif" font-size="13" lengthAdjust="spacing" textLength="61" x="1067.5" y="107.02">depend:6</text><!--MD5=[9f3237f55493a0d177cfac72db78ff2c]
link help to visualizer--><path d="M1377.5,60.0371 C1377.5,80.2191 1377.5,118.2246 1377.5,141.3981 " fill="none" id="help-to-visualizer" style="stroke:#D41159;stroke-width:2.0;"/><polygon fill="#D41159" points="1377.5,146.6687,1381.5,137.6687,1377.5,141.6687,1373.5,137.6687,1377.5,146.6687" style="stroke:#D41159;stroke-width:2.0;"/><text fill="#000000" font-family="sans-serif" font-size="13" lengthAdjust="spacing" textLength="34" x="1378.5" y="107.02">call:1</text><!--MD5=[fd7c44cb8094fd925e9868fbbf8589cf]
@startuml
title
jawira/mini-getopt
end title

top to bottom direction

skinparam Shadowing false
skinparam ArrowFontColor Black
skinparam ArrowThickness 2
skinparam UseCaseBackgroundColor #FFFECC
skinparam UseCaseBorderColor #333333
skinparam UseCaseBorderThickness 2
skinparam UseCaseFontColor Black


(setup) -[#1A85FF]-> (composer:install) : depend:1
(qa) -[#1A85FF]-> (composer:normalize) : depend:1
(qa) -[#1A85FF]-> (composer:validate) : depend:2
(qa) -[#1A85FF]-> (phpunit:run) : depend:3
(qa) -[#1A85FF]-> (behat:run) : depend:4
(qa) -[#1A85FF]-> (phpstan:analyze) : depend:5
(qa) -[#1A85FF]-> (psalm:run) : depend:6
(help) -[#D41159]-> (visualizer) : call:1
(setup)
(qa)
(composer:install)
(composer:validate)
(composer:normalize)
(behat:run)
(phpstan:analyze)
(psalm:run)
(help)
(visualizer)
(phpunit:run)
(phpunit:testdox)
@enduml

PlantUML version 1.2021.13beta4(Unknown compile time)
(GPL source distribution)
Java Runtime: Java(TM) SE Runtime Environment
JVM: Java HotSpot(TM) 64-Bit Server VM
Default Encoding: UTF-8
Language: en
Country: US
--></g></svg>